<?xml version="1.0" standalone="no"?>
<!DOCTYPE svg PUBLIC "-//W3C//DTD SVG 20010904//EN"
 "http://www.w3.org/TR/2001/REC-SVG-20010904/DTD/svg10.dtd">
<svg version="1.0" xmlns="http://www.w3.org/2000/svg"
 width="300.000000pt" height="300.000000pt" viewBox="0 0 300.000000 300.000000"
 preserveAspectRatio="xMidYMid meet">
<metadata>
Created by potrace 1.14, written by Peter Selinger 2001-2017
</metadata>
<g transform="translate(0.000000,300.000000) scale(0.100000,-0.100000)"
fill="#000000" stroke="none">
<path d="M383 2986 c-181 -44 -334 -202 -372 -384 -15 -74 -15 -2130 0 -2204
39 -187 200 -348 387 -387 74 -15 2130 -15 2204 0 187 39 348 200 387 387 15
74 15 2130 0 2204 -39 187 -200 348 -387 387 -80 17 -2149 14 -2219 -3z m1692
-501 c241 -62 406 -260 422 -505 6 -100 -10 -180 -59 -280 -26 -54 -64 -98
-222 -258 -203 -205 -248 -241 -354 -279 -214 -78 -468 -7 -608 170 -51 63
-44 121 17 153 45 23 74 11 150 -61 85 -80 152 -108 259 -108 54 0 92 7 135
23 54 20 79 42 256 219 177 177 199 202 219 256 31 83 31 188 0 270 -32 83
-122 173 -205 205 -82 31 -188 31 -270 0 -49 -19 -80 -43 -170 -130 -125 -122
-144 -134 -191 -126 -62 12 -90 76 -60 134 15 29 156 169 221 219 128 98 308
137 460 98z m-630 -630 c126 -33 229 -97 301 -188 51 -63 44 -121 -17 -153
-45 -23 -74 -11 -150 61 -85 80 -152 108 -259 108 -54 0 -92 -7 -135 -23 -54
-20 -79 -42 -256 -219 -177 -177 -199 -202 -219 -256 -31 -83 -31 -188 0 -270
32 -83 122 -173 205 -205 82 -31 188 -31 269 0 49 19 81 43 176 135 63 62 126
115 138 119 78 25 147 -58 109 -130 -16 -31 -156 -170 -222 -221 -313 -241
-771 -77 -870 312 -30 120 -15 248 47 375 26 54 64 98 217 254 102 104 212
206 244 227 54 35 147 72 207 82 59 10 160 6 215 -8z"/>
</g>
</svg>
